<?xml version="1.0" encoding="UTF-8"?>
<svg id="Capa_1" data-name="Capa 1" xmlns="http://www.w3.org/2000/svg" viewBox="0 0 250 150">
  <defs>
    <style>
      .cls-1 {
        fill-rule: evenodd;
      }

      .cls-1, .cls-2 {
        fill: #002d74;
      }
    </style>
  </defs>
  <path class="cls-1" d="M181.94,74.99h-21.33V14.55h-7.11v60.43h-21.33V14.55h-7.11v60.43h-31.99c-9.82,0-17.77-7.96-17.77-17.78V7.44h21.33v60.43h7.11V7.44h60.43c9.82,0,17.77,7.96,17.77,17.77v49.77Z"/>
  <path class="cls-2" d="M16.94,108.71c-1.31,1.14-3.11,1.71-5.42,1.71s-4.14-.56-5.42-1.69c-1.28-1.12-1.92-2.87-1.92-5.22v-10.72h3.79v10.72c0,.47.04.93.12,1.38.08.45.25.85.51,1.19.26.35.62.63,1.08.85.46.22,1.08.33,1.84.33,1.36,0,2.29-.3,2.81-.9.51-.6.77-1.55.77-2.84v-10.72h3.79v10.72c0,2.34-.65,4.07-1.95,5.2"/>
  <path class="cls-2" d="M24.71,97.55v1.74h.08c.43-.72,1-1.25,1.68-1.58.7-.33,1.4-.5,2.13-.5.92,0,1.67.12,2.26.37.59.25,1.05.59,1.39,1.04.34.44.58.99.71,1.62.14.64.2,1.34.2,2.11v7.68h-3.43v-7.05c0-1.03-.16-1.8-.48-2.3-.33-.51-.89-.76-1.72-.76-.93,0-1.61.28-2.03.84-.42.55-.63,1.47-.63,2.74v6.54h-3.43v-12.49h3.26Z"/>
  <path class="cls-2" d="M35.6,92.79h3.43v2.83h-3.43v-2.83ZM39.02,110.03h-3.43v-12.49h3.43v12.49Z"/>
  <polygon class="cls-2" points="44.55 110.03 40.28 97.55 43.88 97.55 46.51 106.07 46.56 106.07 49.19 97.55 52.6 97.55 48.37 110.03 44.55 110.03"/>
  <path class="cls-2" d="M57.01,107.04c.51.5,1.25.75,2.22.75.69,0,1.29-.17,1.79-.52.5-.35.81-.72.92-1.1h3.01c-.48,1.5-1.22,2.57-2.22,3.21-1,.64-2.21.97-3.62.97-.98,0-1.87-.16-2.66-.47-.79-.32-1.46-.76-2-1.34-.55-.58-.97-1.27-1.27-2.08-.3-.8-.44-1.69-.44-2.66s.15-1.8.46-2.61c.3-.81.74-1.5,1.3-2.09.56-.58,1.24-1.05,2.02-1.39.78-.34,1.64-.51,2.59-.51,1.06,0,1.99.2,2.78.61.79.41,1.44.96,1.94,1.65.51.69.87,1.48,1.1,2.37.22.88.3,1.81.24,2.77h-9.01c.05,1.11.33,1.92.85,2.42M60.89,100.47c-.41-.45-1.04-.67-1.87-.67-.55,0-1,.09-1.37.27-.36.19-.65.42-.87.69-.22.27-.37.57-.46.87-.09.3-.14.58-.16.82h5.58c-.16-.87-.45-1.53-.86-1.98"/>
  <path class="cls-2" d="M70.21,97.55v2.32h.05c.16-.39.38-.74.66-1.07.27-.33.58-.61.94-.85.35-.23.73-.42,1.14-.54.41-.13.82-.19,1.26-.19.23,0,.47.04.75.12v3.19c-.16-.03-.35-.06-.58-.08-.23-.02-.44-.04-.65-.04-.63,0-1.16.11-1.6.32-.43.21-.79.5-1.05.86-.27.36-.46.79-.57,1.27-.11.48-.17,1.01-.17,1.57v5.63h-3.43v-12.49h3.26Z"/>
  <path class="cls-2" d="M79.22,106.93c.16.27.35.48.59.65.24.17.52.29.83.37.31.08.64.12.97.12.24,0,.5-.03.76-.08.27-.06.51-.15.72-.27.22-.12.4-.28.54-.48.15-.2.22-.45.22-.76,0-.52-.34-.9-1.02-1.16-.69-.26-1.64-.51-2.86-.78-.5-.11-.98-.24-1.46-.4-.47-.15-.89-.35-1.27-.61-.37-.25-.67-.56-.89-.94-.22-.38-.34-.84-.34-1.39,0-.81.16-1.47.47-1.98.31-.52.72-.92,1.24-1.22.51-.3,1.09-.51,1.74-.63.65-.12,1.3-.18,1.98-.18s1.33.06,1.97.19c.64.13,1.2.35,1.7.65.51.31.91.71,1.25,1.22.33.51.53,1.15.59,1.92h-3.26c-.05-.66-.3-1.11-.75-1.34-.45-.24-.98-.35-1.59-.35-.19,0-.4.01-.63.04-.23.02-.43.08-.62.16-.18.08-.34.2-.47.35-.13.15-.2.36-.2.62,0,.31.11.56.34.75.22.19.52.35.88.47.36.12.78.23,1.24.33.47.1.94.2,1.43.31.5.12.98.25,1.46.41.48.16.9.37,1.27.64.37.27.67.6.89.99.23.4.34.89.34,1.46,0,.82-.16,1.51-.49,2.06-.33.55-.76,1-1.3,1.34-.53.34-1.14.58-1.82.71-.68.14-1.38.21-2.09.21s-1.43-.07-2.12-.22c-.69-.14-1.31-.39-1.84-.72-.54-.34-.98-.78-1.33-1.34-.35-.55-.54-1.25-.57-2.09h3.26c0,.37.08.69.23.95"/>
  <path class="cls-2" d="M89.16,92.79h3.43v2.83h-3.43v-2.83ZM92.59,110.03h-3.43v-12.49h3.43v12.49Z"/>
  <path class="cls-2" d="M103.9,108.44c-.4.68-.92,1.16-1.58,1.46-.65.3-1.39.45-2.21.45-.93,0-1.76-.18-2.47-.54-.71-.36-1.29-.85-1.75-1.47-.46-.62-.81-1.33-1.04-2.14-.23-.8-.35-1.64-.35-2.51s.12-1.64.35-2.42c.23-.78.58-1.47,1.04-2.07.45-.6,1.03-1.07,1.72-1.44.69-.37,1.5-.54,2.42-.54.74,0,1.44.15,2.11.47.66.31,1.19.78,1.58,1.39h.05v-6.28h3.43v17.25h-3.26v-1.59h-.05ZM103.76,102.27c-.1-.47-.26-.89-.5-1.26-.24-.36-.54-.65-.91-.88-.37-.22-.84-.34-1.4-.34s-1.04.11-1.42.34c-.39.23-.7.53-.93.89-.24.37-.4.8-.51,1.27-.11.48-.16.97-.16,1.49,0,.48.06.96.17,1.45.11.48.3.92.55,1.29.25.38.56.68.94.92.38.23.83.35,1.36.35.56,0,1.03-.11,1.41-.34.38-.23.68-.53.91-.91.22-.38.39-.81.48-1.29.1-.48.14-.98.14-1.5s-.04-1.01-.14-1.49"/>
  <path class="cls-2" d="M110.03,99.38c.35-.53.8-.96,1.35-1.28.55-.32,1.16-.55,1.85-.69.68-.14,1.38-.2,2.07-.2.63,0,1.26.04,1.91.13.64.09,1.23.26,1.76.52.53.26.96.62,1.31,1.07.34.46.5,1.07.5,1.82v6.5c0,.56.04,1.1.1,1.62.07.51.18.9.34,1.16h-3.48c-.06-.19-.12-.39-.16-.59-.04-.2-.07-.41-.09-.61-.55.56-1.19.96-1.93,1.18-.74.23-1.5.34-2.27.34-.59,0-1.15-.07-1.67-.22-.51-.14-.96-.37-1.35-.67-.38-.31-.69-.69-.9-1.16-.22-.46-.32-1.02-.32-1.66,0-.71.13-1.29.37-1.75.24-.46.57-.83.96-1.1.39-.27.85-.48,1.35-.62.51-.13,1.02-.24,1.54-.32.51-.08,1.02-.15,1.52-.19.5-.05.95-.12,1.33-.22.39-.1.69-.24.92-.42.23-.18.33-.45.32-.81,0-.37-.06-.67-.18-.88-.12-.22-.28-.39-.48-.51-.2-.12-.44-.2-.7-.24-.26-.04-.55-.06-.85-.06-.68,0-1.21.15-1.6.43-.38.29-.61.78-.68,1.45h-3.43c.05-.81.25-1.47.6-2.01M116.81,104.23c-.22.07-.45.13-.7.18-.25.05-.51.09-.79.12-.27.03-.54.07-.82.12-.26.05-.51.11-.76.19-.25.08-.46.19-.65.32-.19.14-.33.31-.45.52-.11.21-.17.48-.17.8,0,.31.05.56.17.77.11.21.27.37.46.49.19.12.41.2.67.26.26.05.52.07.8.07.67,0,1.2-.11,1.57-.34.37-.22.65-.5.82-.81.17-.31.29-.63.33-.95.04-.32.06-.58.06-.77v-1.28c-.14.13-.32.23-.54.3"/>
  <path class="cls-2" d="M131.94,108.44c-.4.68-.93,1.16-1.58,1.46-.65.3-1.39.45-2.21.45-.93,0-1.75-.18-2.46-.54-.71-.36-1.3-.85-1.75-1.47-.46-.62-.81-1.33-1.04-2.14-.23-.8-.35-1.64-.35-2.51s.12-1.64.35-2.42c.24-.78.58-1.47,1.04-2.07.46-.6,1.03-1.07,1.73-1.44.69-.37,1.5-.54,2.41-.54.74,0,1.45.15,2.11.47.67.31,1.19.78,1.58,1.39h.05v-6.28h3.43v17.25h-3.27v-1.59h-.05ZM131.8,102.27c-.1-.47-.26-.89-.49-1.26-.24-.36-.53-.65-.91-.88-.37-.22-.84-.34-1.4-.34s-1.04.11-1.42.34c-.39.23-.7.53-.93.89-.23.37-.4.8-.51,1.27-.11.48-.16.97-.16,1.49,0,.48.05.96.17,1.45.11.48.3.92.55,1.29.25.38.56.68.94.92.38.23.84.35,1.37.35.56,0,1.03-.11,1.41-.34.38-.23.68-.53.91-.91.22-.38.38-.81.48-1.29.1-.48.14-.98.14-1.5s-.05-1.01-.14-1.49"/>
  <polygon class="cls-2" points="149.97 92.79 154.01 104.65 154.06 104.65 157.87 92.79 163.21 92.79 163.21 110.03 159.66 110.03 159.66 97.81 159.61 97.81 155.38 110.03 152.46 110.03 148.23 97.93 148.19 97.93 148.19 110.03 144.64 110.03 144.64 92.79 149.97 92.79"/>
  <path class="cls-2" d="M165.85,101.09c.31-.81.74-1.51,1.31-2.08.56-.57,1.24-1.01,2.03-1.33.79-.32,1.67-.47,2.66-.47s1.87.16,2.67.47c.8.31,1.48.76,2.04,1.33.56.57,1,1.27,1.3,2.08.31.81.46,1.72.46,2.72s-.15,1.9-.46,2.71c-.3.8-.74,1.49-1.3,2.06-.56.57-1.25,1.01-2.04,1.32-.8.31-1.69.46-2.67.46s-1.87-.16-2.66-.46c-.79-.3-1.47-.74-2.03-1.32-.56-.57-1-1.26-1.31-2.06-.31-.8-.45-1.71-.45-2.71s.15-1.91.45-2.72M168.97,105.26c.1.48.26.9.5,1.28.23.38.54.68.93.91.39.23.87.34,1.45.34s1.07-.11,1.46-.34c.4-.23.71-.53.94-.91.23-.38.4-.8.5-1.28.1-.47.15-.96.15-1.46s-.05-.99-.15-1.47c-.1-.48-.26-.91-.5-1.28-.24-.37-.55-.67-.94-.9-.39-.24-.88-.35-1.46-.35s-1.06.12-1.45.35c-.39.23-.7.53-.93.9-.23.37-.4.8-.5,1.28-.1.48-.14.97-.14,1.47s.05.99.14,1.46"/>
  <path class="cls-2" d="M186.9,97.55v2.3h-2.52v6.18c0,.58.1.97.29,1.16.19.19.58.29,1.16.29.19,0,.38,0,.56-.02.17-.02.35-.04.51-.07v2.66c-.29.05-.62.08-.97.1-.35.02-.7.02-1.04.02-.53,0-1.03-.03-1.51-.11-.47-.07-.89-.21-1.25-.42-.36-.21-.65-.51-.86-.9-.21-.38-.31-.89-.31-1.52v-7.36h-2.08v-2.3h2.08v-3.75h3.43v3.75h2.52Z"/>
  <path class="cls-2" d="M188.12,101.09c.31-.81.74-1.51,1.31-2.08.56-.57,1.24-1.01,2.03-1.33.79-.32,1.68-.47,2.66-.47s1.87.16,2.67.47c.8.31,1.48.76,2.04,1.33.56.57.99,1.27,1.3,2.08.31.81.45,1.72.45,2.72s-.15,1.9-.45,2.71c-.31.8-.74,1.49-1.3,2.06-.57.57-1.24,1.01-2.04,1.32-.8.31-1.69.46-2.67.46s-1.87-.16-2.66-.46c-.79-.3-1.47-.74-2.03-1.32-.57-.57-.99-1.26-1.31-2.06-.31-.8-.46-1.71-.46-2.71s.15-1.91.46-2.72M191.24,105.26c.1.48.26.9.5,1.28.23.38.54.68.93.91.39.23.87.34,1.45.34s1.07-.11,1.46-.34c.4-.23.71-.53.94-.91.23-.38.4-.8.5-1.28.1-.47.15-.96.15-1.46s-.05-.99-.15-1.47c-.1-.48-.26-.91-.5-1.28-.23-.37-.55-.67-.94-.9-.39-.24-.88-.35-1.46-.35s-1.06.12-1.45.35c-.39.23-.7.53-.93.9-.23.37-.4.8-.5,1.28-.1.48-.14.97-.14,1.47s.04.99.14,1.46"/>
  <rect class="cls-2" x="202.53" y="92.79" width="3.43" height="17.24"/>
  <path class="cls-2" d="M208.43,92.79h3.43v2.83h-3.43v-2.83ZM211.87,110.03h-3.43v-12.49h3.43v12.49Z"/>
  <path class="cls-2" d="M217.55,97.55v1.74h.07c.44-.72,1-1.25,1.69-1.58.69-.33,1.4-.5,2.12-.5.92,0,1.68.12,2.26.37.59.25,1.05.59,1.39,1.04.34.44.57.99.71,1.62.14.64.21,1.34.21,2.11v7.68h-3.43v-7.05c0-1.03-.16-1.8-.48-2.3-.33-.51-.9-.76-1.72-.76-.93,0-1.61.28-2.03.84-.42.55-.63,1.47-.63,2.74v6.54h-3.43v-12.49h3.26Z"/>
  <path class="cls-2" d="M228.32,96l2.32-3.43h3.79l-3.72,3.43h-2.39ZM231.85,110.03h-3.43v-12.49h3.43v12.49Z"/>
  <path class="cls-2" d="M234.63,99.38c.35-.53.81-.96,1.35-1.28.55-.32,1.16-.55,1.85-.69.69-.14,1.37-.2,2.06-.2.62,0,1.26.04,1.91.13.64.09,1.23.26,1.76.52.53.26.97.62,1.31,1.07.34.46.51,1.07.51,1.82v6.5c0,.56.03,1.1.1,1.62.06.51.18.9.34,1.16h-3.48c-.06-.19-.12-.39-.16-.59-.04-.2-.07-.41-.08-.61-.55.56-1.19.96-1.93,1.18-.74.23-1.5.34-2.27.34-.6,0-1.15-.07-1.67-.22-.52-.14-.97-.37-1.36-.67-.38-.31-.69-.69-.91-1.16-.21-.46-.32-1.02-.32-1.66,0-.71.12-1.29.37-1.75.25-.46.57-.83.97-1.1.4-.27.85-.48,1.35-.62.51-.13,1.02-.24,1.53-.32.52-.08,1.02-.15,1.52-.19.5-.05.94-.12,1.33-.22.39-.1.69-.24.92-.42.23-.18.33-.45.31-.81,0-.37-.06-.67-.18-.88-.12-.22-.28-.39-.48-.51-.2-.12-.43-.2-.7-.24-.26-.04-.55-.06-.85-.06-.68,0-1.21.15-1.6.43-.39.29-.62.78-.68,1.45h-3.43c.05-.81.25-1.47.6-2.01M241.41,104.23c-.22.07-.45.13-.7.18-.25.05-.51.09-.79.12-.27.03-.55.07-.82.12-.25.05-.51.11-.76.19-.25.08-.47.19-.65.32-.18.14-.33.31-.45.52-.11.21-.17.48-.17.8,0,.31.05.56.17.77.11.21.27.37.46.49.19.12.42.2.68.26.26.05.52.07.79.07.68,0,1.2-.11,1.57-.34.37-.22.64-.5.82-.81.18-.31.29-.63.33-.95.04-.32.06-.58.06-.77v-1.28c-.14.13-.32.23-.54.3"/>
  <path class="cls-2" d="M64.44,136.25c-.4.68-.93,1.16-1.58,1.46-.65.3-1.39.45-2.21.45-.93,0-1.75-.18-2.46-.54-.71-.36-1.29-.85-1.75-1.47-.45-.62-.8-1.33-1.03-2.14-.24-.81-.35-1.64-.35-2.51s.11-1.65.35-2.43c.23-.78.58-1.47,1.03-2.07.46-.59,1.04-1.07,1.73-1.44.69-.36,1.5-.54,2.41-.54.75,0,1.45.16,2.11.47.67.32,1.2.78,1.58,1.39h.05v-6.28h3.43v17.24h-3.26v-1.59h-.05ZM64.3,130.08c-.1-.47-.26-.89-.5-1.25-.23-.36-.54-.66-.9-.89-.37-.22-.84-.34-1.4-.34s-1.04.11-1.43.34c-.38.23-.7.52-.93.9-.24.37-.4.79-.51,1.26-.1.48-.16.97-.16,1.49,0,.48.06.97.17,1.45.11.48.29.91.54,1.29.25.38.56.68.94.92.38.24.83.35,1.36.35.57,0,1.03-.12,1.41-.34.38-.22.68-.53.91-.9.23-.38.38-.81.49-1.29.1-.48.14-.98.14-1.5s-.05-1.01-.14-1.49"/>
  <path class="cls-2" d="M73.78,134.85c.52.5,1.26.75,2.22.75.69,0,1.28-.17,1.79-.52.5-.35.81-.71.92-1.1h3.02c-.48,1.5-1.22,2.57-2.22,3.21-1,.64-2.21.97-3.62.97-.98,0-1.87-.16-2.65-.47-.79-.32-1.46-.76-2.01-1.34-.55-.58-.97-1.27-1.27-2.08-.29-.8-.44-1.69-.44-2.65s.15-1.8.46-2.61c.3-.8.74-1.5,1.31-2.09.56-.59,1.23-1.05,2.02-1.39.78-.34,1.64-.51,2.59-.51,1.07,0,1.99.2,2.78.61.79.41,1.43.97,1.94,1.66.51.69.87,1.48,1.1,2.36.22.89.31,1.81.24,2.78h-9.01c.05,1.11.33,1.92.84,2.41M77.66,128.28c-.41-.45-1.03-.68-1.87-.68-.55,0-1,.09-1.37.28-.36.18-.65.42-.87.69-.22.28-.37.57-.46.87-.09.3-.14.58-.16.82h5.58c-.16-.87-.45-1.53-.86-1.98"/>
  <rect class="cls-2" x="83.76" y="120.6" width="3.43" height="17.24"/>
  <path class="cls-2" d="M104.17,120.6c1.07,0,2,.16,2.75.47.76.31,1.37.73,1.85,1.24.47.52.82,1.1,1.04,1.76.22.66.32,1.35.32,2.05s-.11,1.37-.32,2.04c-.22.67-.57,1.26-1.04,1.77-.48.51-1.09.93-1.85,1.24-.75.31-1.68.47-2.75.47h-3.99v6.18h-3.79v-17.24h7.78ZM103.13,128.72c.44,0,.85-.03,1.26-.1.4-.06.75-.19,1.06-.37.31-.18.55-.45.74-.79.19-.34.28-.78.28-1.33s-.09-.99-.28-1.33c-.19-.34-.43-.6-.74-.79-.31-.18-.66-.31-1.06-.37-.41-.07-.82-.1-1.26-.1h-2.94v5.17h2.94Z"/>
  <path class="cls-2" d="M115.14,134.85c.52.5,1.26.75,2.22.75.69,0,1.29-.17,1.79-.52.5-.35.81-.71.92-1.1h3.02c-.48,1.5-1.23,2.57-2.22,3.21-1,.64-2.21.97-3.62.97-.98,0-1.87-.16-2.66-.47-.79-.32-1.46-.76-2-1.34-.55-.58-.97-1.27-1.27-2.08-.3-.8-.45-1.69-.45-2.65s.16-1.8.46-2.61c.3-.8.74-1.5,1.3-2.09.57-.59,1.24-1.05,2.02-1.39.78-.34,1.65-.51,2.59-.51,1.06,0,1.99.2,2.78.61.78.41,1.43.97,1.94,1.66.51.69.87,1.48,1.1,2.36.23.89.31,1.81.24,2.78h-9.01c.05,1.11.34,1.92.85,2.41M119.02,128.28c-.41-.45-1.03-.68-1.87-.68-.55,0-1.01.09-1.37.28-.36.18-.65.42-.87.69-.22.28-.37.57-.46.87-.09.3-.14.58-.16.82h5.58c-.16-.87-.45-1.53-.85-1.98"/>
  <path class="cls-2" d="M133.95,136.25c-.41.68-.93,1.16-1.59,1.46-.65.3-1.39.45-2.21.45-.93,0-1.75-.18-2.46-.54-.71-.36-1.29-.85-1.75-1.47-.46-.62-.81-1.33-1.04-2.14-.23-.81-.35-1.64-.35-2.51s.12-1.65.35-2.43c.23-.78.58-1.47,1.04-2.07.46-.59,1.04-1.07,1.73-1.44.69-.36,1.5-.54,2.41-.54.74,0,1.45.16,2.12.47.66.32,1.19.78,1.58,1.39h.05v-6.28h3.43v17.24h-3.26v-1.59h-.04ZM133.81,130.08c-.1-.47-.26-.89-.5-1.25-.23-.36-.53-.66-.9-.89-.37-.22-.83-.34-1.4-.34s-1.04.11-1.43.34c-.39.23-.69.52-.93.9-.24.37-.4.79-.51,1.26-.11.48-.16.97-.16,1.49,0,.48.06.97.17,1.45.11.48.3.91.54,1.29.25.38.57.68.94.92.38.24.83.35,1.37.35.56,0,1.03-.12,1.41-.34.38-.22.68-.53.91-.9.22-.38.39-.81.48-1.29.1-.48.15-.98.15-1.5s-.05-1.01-.15-1.49"/>
  <path class="cls-2" d="M142.89,125.36v2.32h.05c.16-.38.38-.74.65-1.07.27-.33.59-.61.94-.85.35-.23.73-.41,1.14-.54.4-.13.82-.19,1.26-.19.22,0,.47.04.75.12v3.19c-.16-.03-.35-.06-.58-.08-.22-.03-.44-.04-.65-.04-.63,0-1.16.1-1.6.31-.43.21-.78.5-1.05.86-.27.36-.45.78-.57,1.26-.12.48-.17,1.01-.17,1.57v5.63h-3.43v-12.48h3.26Z"/>
  <path class="cls-2" d="M152.54,134.85c.51.5,1.26.75,2.22.75.69,0,1.29-.17,1.79-.52.5-.35.81-.71.92-1.1h3.02c-.48,1.5-1.22,2.57-2.22,3.21-1,.64-2.21.97-3.62.97-.98,0-1.87-.16-2.66-.47-.79-.32-1.46-.76-2.01-1.34-.55-.58-.97-1.27-1.27-2.08-.29-.8-.44-1.69-.44-2.65s.15-1.8.46-2.61c.3-.8.74-1.5,1.31-2.09.56-.59,1.23-1.05,2.02-1.39.78-.34,1.65-.51,2.6-.51,1.06,0,1.99.2,2.78.61.79.41,1.43.97,1.94,1.66.51.69.87,1.48,1.1,2.36.23.89.31,1.81.24,2.78h-9.01c.05,1.11.33,1.92.85,2.41M156.42,128.28c-.41-.45-1.03-.68-1.87-.68-.55,0-1,.09-1.36.28-.36.18-.65.42-.87.69-.22.28-.37.57-.46.87-.09.3-.14.58-.16.82h5.58c-.16-.87-.45-1.53-.86-1.98"/>
  <path class="cls-2" d="M174.21,138.76c-.13.64-.43,1.24-.88,1.8-.45.56-1.1,1.03-1.96,1.41-.85.39-2,.58-3.43.58-.61,0-1.24-.07-1.87-.23-.64-.15-1.22-.39-1.74-.71-.52-.32-.96-.74-1.3-1.24-.35-.51-.54-1.11-.59-1.82h3.4c.16.64.47,1.09.94,1.34.47.25,1,.38,1.62.38.96,0,1.67-.29,2.11-.87.45-.58.66-1.31.64-2.2v-1.64h-.05c-.37.66-.89,1.15-1.58,1.46-.68.31-1.4.47-2.16.47-.93,0-1.74-.17-2.42-.5-.67-.33-1.23-.78-1.66-1.35-.44-.57-.75-1.24-.95-2.01-.2-.77-.3-1.57-.3-2.43,0-.8.12-1.58.35-2.33.23-.75.57-1.41,1.03-1.98.45-.57,1-1.03,1.67-1.37.67-.34,1.43-.51,2.3-.51s1.54.15,2.16.46c.62.31,1.14.82,1.56,1.55h.05v-1.66h3.26v11.69c0,.5-.07,1.07-.21,1.71M169.51,134.61c.37-.2.68-.45.92-.77.24-.32.42-.69.54-1.1.13-.41.19-.84.19-1.29,0-.52-.05-1-.15-1.46-.1-.46-.26-.87-.48-1.22-.22-.35-.52-.64-.89-.84-.37-.21-.84-.32-1.4-.32-.48,0-.9.1-1.24.29-.35.19-.64.46-.87.78-.24.33-.4.71-.51,1.14-.1.43-.16.87-.16,1.34s.05.9.13,1.34c.09.44.24.84.46,1.19.21.36.5.65.85.87.35.22.8.33,1.33.33.48,0,.91-.1,1.28-.29"/>
  <path class="cls-2" d="M177.32,127.19c.35-.53.8-.96,1.36-1.28.54-.32,1.16-.55,1.85-.69.68-.14,1.37-.21,2.06-.21.63,0,1.27.05,1.91.13.65.09,1.23.26,1.76.52.53.26.97.62,1.3,1.08.34.46.5,1.07.5,1.82v6.5c0,.56.04,1.1.1,1.62.06.52.18.9.34,1.16h-3.48c-.06-.19-.12-.39-.16-.59-.04-.2-.07-.41-.08-.61-.55.56-1.19.96-1.93,1.18-.74.23-1.5.34-2.27.34-.6,0-1.15-.07-1.67-.22-.51-.14-.97-.37-1.35-.68-.38-.31-.69-.69-.9-1.16-.22-.47-.33-1.03-.33-1.67,0-.71.13-1.29.37-1.75.25-.46.57-.82.97-1.1.4-.27.85-.48,1.35-.62.51-.14,1.02-.24,1.53-.33.51-.08,1.02-.14,1.52-.19.5-.05.94-.12,1.33-.22.38-.1.69-.24.92-.42.23-.18.33-.46.31-.81,0-.37-.06-.66-.18-.88-.12-.22-.28-.39-.48-.51-.2-.12-.43-.2-.7-.24-.27-.04-.55-.06-.86-.06-.68,0-1.2.14-1.59.43-.39.29-.61.77-.68,1.45h-3.43c.05-.81.25-1.47.6-2.01M184.1,132.04c-.22.07-.46.13-.71.18-.24.05-.51.09-.78.12-.27.03-.55.07-.82.12-.26.05-.51.11-.76.19-.25.08-.47.19-.65.33-.19.14-.33.31-.45.52-.11.21-.17.47-.17.8,0,.3.05.56.17.77.11.21.27.37.46.5.19.12.42.2.68.25.26.05.52.07.8.07.68,0,1.2-.11,1.57-.34.37-.22.64-.49.82-.81.17-.31.28-.63.32-.95.04-.32.06-.58.06-.77v-1.28c-.15.13-.33.23-.54.3"/>
  <rect class="cls-2" x="190.52" y="120.6" width="3.43" height="17.24"/>
</svg>